<?xml version="1.0" encoding="utf-8"?><svg viewBox="0 0 18 18" xmlns="http://www.w3.org/2000/svg" xmlns:xlink="http://www.w3.org/1999/xlink"><style>:root>svg{display:none}:root>svg:target{display:block}</style><svg fill="none" viewBox="0 0 11 14" id="Polygon" xmlns="http://www.w3.org/2000/svg"><path d="M10.5 6.134a1 1 0 0 1 0 1.732l-9 5.196a1 1 0 0 1-1.5-.866V1.804A1 1 0 0 1 1.5.938l9 5.196Z" fill="#fff"/></svg><svg fill="none" viewBox="0 0 16 16" id="Right" xmlns="http://www.w3.org/2000/svg"><path fill-rule="evenodd" clip-rule="evenodd" d="M9.862 4.53c.26-.261.682-.261.943 0l3 3c.26.26.26.682 0 .942l-3 3a.667.667 0 0 1-.943-.943l1.862-1.862H2.667a.667.667 0 0 1 0-1.333h9.057L9.862 5.472a.667.667 0 0 1 0-.943Z" fill="#fff"/></svg><svg fill="none" viewBox="0 0 18 18" id="account" xmlns="http://www.w3.org/2000/svg"><path fill-rule="evenodd" clip-rule="evenodd" d="M9 1.709a2.917 2.917 0 1 0 0 5.833 2.917 2.917 0 0 0 0-5.833ZM4.417 4.625a4.583 4.583 0 1 1 9.167 0 4.583 4.583 0 0 1-9.167 0ZM4.087 11.709c-.578 0-1.03.281-1.213.685-.253.56-.483 1.226-.537 1.857-.025.283.093.49.255.592.858.532 2.845 1.449 6.408 1.449s5.55-.917 6.408-1.45c.162-.1.28-.308.256-.59-.054-.632-.284-1.298-.538-1.858-.183-.404-.635-.685-1.212-.685H4.087Zm-2.73-.003c.506-1.117 1.637-1.664 2.73-1.664h9.827c1.092 0 2.223.547 2.73 1.664.291.641.603 1.504.68 2.403.07.818-.27 1.673-1.036 2.15-1.128.7-3.421 1.7-7.288 1.7-3.866 0-6.16-1-7.287-1.7-.767-.477-1.107-1.332-1.037-2.15.077-.9.39-1.762.68-2.403Z" fill="#424551"/></svg><svg fill="none" viewBox="0 0 12 8" id="arrow-right" xmlns="http://www.w3.org/2000/svg"><path fill-rule="evenodd" clip-rule="evenodd" d="M7.862.53c.26-.261.682-.261.943 0l3 3c.26.26.26.682 0 .942l-3 3a.667.667 0 1 1-.943-.943l1.862-1.862H.667a.667.667 0 0 1 0-1.333h9.057L7.862 1.472a.667.667 0 0 1 0-.943Z" fill="#fff"/></svg><svg fill="none" viewBox="0 0 16 14" id="heart" xmlns="http://www.w3.org/2000/svg"><path fill-rule="evenodd" clip-rule="evenodd" d="M8 12.271C4.934 10.525 3.224 8.79 2.397 7.284c-.847-1.542-.773-2.84-.303-3.761.965-1.894 3.71-2.5 5.383-.384L8 3.8l.523-.661c1.672-2.116 4.418-1.51 5.383.384.47.921.543 2.22-.303 3.76-.827 1.507-2.537 3.242-5.603 4.988ZM8 1.737C5.647-.498 2.176.426.906 2.917c-.697 1.368-.707 3.135.322 5.008 1.02 1.857 3.052 3.817 6.45 5.694l.322.179.322-.179c3.398-1.877 5.43-3.837 6.45-5.694 1.028-1.873 1.019-3.64.322-5.008C13.824.425 10.353-.498 8 1.737Z" fill="#FF3F3A"/></svg><svg fill="none" viewBox="0 0 16 16" id="searc-icon" xmlns="http://www.w3.org/2000/svg"><path fill-rule="evenodd" clip-rule="evenodd" d="M7.25 2.166a5.083 5.083 0 1 0 0 10.167 5.083 5.083 0 0 0 0-10.167ZM.833 7.25a6.417 6.417 0 1 1 11.4 4.044l2.738 2.734a.667.667 0 1 1-.942.944l-2.74-2.736A6.417 6.417 0 0 1 .834 7.25Z" fill="#9A9CA5"/></svg></svg>